<mxfile host="app.diagrams.net" modified="2022-04-12T13:11:49.364Z" agent="5.0 (Macintosh; Intel Mac OS X 10_15_7) AppleWebKit/537.36 (KHTML, like Gecko) Chrome/99.0.4844.83 Safari/537.36" etag="vpA6gH8Ikj-52Z2OZHGn" version="17.2.5" type="github" pages="3">
  <diagram id="26eV3ZIRrawxO_ZgqYXO" name="arch">
    <mxGraphModel dx="946" dy="557" grid="0" gridSize="10" guides="1" tooltips="1" connect="1" arrows="1" fold="1" page="1" pageScale="1" pageWidth="827" pageHeight="1169" background="none" math="0" shadow="1">
      <root>
        <mxCell id="0" />
        <mxCell id="1" parent="0" />
        <mxCell id="dzvUKzrdcoG2YfKmjJi--2" value="" style="whiteSpace=wrap;html=1;aspect=fixed;" vertex="1" parent="1">
          <mxGeometry x="130" y="140" width="440" height="440" as="geometry" />
        </mxCell>
        <mxCell id="dzvUKzrdcoG2YfKmjJi--1" value="&lt;b&gt;&lt;font style=&quot;font-size: 18px&quot;&gt;Source Chain&lt;/font&gt;&lt;/b&gt;" style="rounded=0;whiteSpace=wrap;html=1;" vertex="1" parent="1">
          <mxGeometry x="130" y="70" width="440" height="50" as="geometry" />
        </mxCell>
        <mxCell id="dzvUKzrdcoG2YfKmjJi--3" value="" style="rounded=0;whiteSpace=wrap;html=1;dashed=1;" vertex="1" parent="1">
          <mxGeometry x="150" y="170" width="400" height="110" as="geometry" />
        </mxCell>
        <mxCell id="dzvUKzrdcoG2YfKmjJi--20" value="" style="group" vertex="1" connectable="0" parent="1">
          <mxGeometry x="170" y="190" width="360" height="60" as="geometry" />
        </mxCell>
        <mxCell id="dzvUKzrdcoG2YfKmjJi--4" value="node" style="ellipse;whiteSpace=wrap;html=1;aspect=fixed;" vertex="1" parent="dzvUKzrdcoG2YfKmjJi--20">
          <mxGeometry width="51.42857142857142" height="51.42857142857142" as="geometry" />
        </mxCell>
        <mxCell id="dzvUKzrdcoG2YfKmjJi--5" value="node" style="ellipse;whiteSpace=wrap;html=1;aspect=fixed;" vertex="1" parent="dzvUKzrdcoG2YfKmjJi--20">
          <mxGeometry x="93.95142857142858" width="51.42857142857142" height="51.42857142857142" as="geometry" />
        </mxCell>
        <mxCell id="dzvUKzrdcoG2YfKmjJi--6" value="&lt;span&gt;node&lt;/span&gt;" style="ellipse;whiteSpace=wrap;html=1;aspect=fixed;" vertex="1" parent="dzvUKzrdcoG2YfKmjJi--20">
          <mxGeometry x="187.90285714285716" width="51.42857142857142" height="51.42857142857142" as="geometry" />
        </mxCell>
        <mxCell id="dzvUKzrdcoG2YfKmjJi--7" value="&lt;span&gt;node&lt;/span&gt;" style="ellipse;whiteSpace=wrap;html=1;aspect=fixed;" vertex="1" parent="dzvUKzrdcoG2YfKmjJi--20">
          <mxGeometry x="308.57142857142856" width="51.42857142857142" height="51.42857142857142" as="geometry" />
        </mxCell>
        <mxCell id="dzvUKzrdcoG2YfKmjJi--8" value="" style="endArrow=classic;startArrow=classic;html=1;rounded=0;exitX=1;exitY=0.5;exitDx=0;exitDy=0;entryX=0;entryY=0.5;entryDx=0;entryDy=0;" edge="1" parent="dzvUKzrdcoG2YfKmjJi--20" source="dzvUKzrdcoG2YfKmjJi--4" target="dzvUKzrdcoG2YfKmjJi--5">
          <mxGeometry width="50" height="50" relative="1" as="geometry">
            <mxPoint x="57.815126050420204" y="120" as="sourcePoint" />
            <mxPoint x="93.94957983193278" y="70" as="targetPoint" />
          </mxGeometry>
        </mxCell>
        <mxCell id="dzvUKzrdcoG2YfKmjJi--17" value="" style="endArrow=classic;startArrow=classic;html=1;rounded=0;exitX=1;exitY=0.5;exitDx=0;exitDy=0;entryX=0;entryY=0.5;entryDx=0;entryDy=0;" edge="1" parent="dzvUKzrdcoG2YfKmjJi--20" source="dzvUKzrdcoG2YfKmjJi--6" target="dzvUKzrdcoG2YfKmjJi--7">
          <mxGeometry width="50" height="50" relative="1" as="geometry">
            <mxPoint x="188.57142857142856" y="120" as="sourcePoint" />
            <mxPoint x="231.42857142857142" y="70" as="targetPoint" />
          </mxGeometry>
        </mxCell>
        <mxCell id="dzvUKzrdcoG2YfKmjJi--19" value="......" style="edgeLabel;html=1;align=center;verticalAlign=middle;resizable=0;points=[];" vertex="1" connectable="0" parent="dzvUKzrdcoG2YfKmjJi--17">
          <mxGeometry x="-0.2419" y="-1" relative="1" as="geometry">
            <mxPoint x="5" y="-1" as="offset" />
          </mxGeometry>
        </mxCell>
        <mxCell id="dzvUKzrdcoG2YfKmjJi--18" value="" style="endArrow=classic;startArrow=classic;html=1;rounded=0;exitX=1;exitY=0.5;exitDx=0;exitDy=0;" edge="1" parent="dzvUKzrdcoG2YfKmjJi--20" source="dzvUKzrdcoG2YfKmjJi--5" target="dzvUKzrdcoG2YfKmjJi--6">
          <mxGeometry width="50" height="50" relative="1" as="geometry">
            <mxPoint x="214.28571428571428" y="180" as="sourcePoint" />
            <mxPoint x="257.14285714285717" y="130" as="targetPoint" />
          </mxGeometry>
        </mxCell>
        <mxCell id="dzvUKzrdcoG2YfKmjJi--21" value="&lt;b&gt;&lt;font style=&quot;font-size: 14px&quot;&gt;Tss Node Set&lt;/font&gt;&lt;/b&gt;" style="text;html=1;strokeColor=none;fillColor=none;align=center;verticalAlign=middle;whiteSpace=wrap;rounded=0;" vertex="1" parent="1">
          <mxGeometry x="150" y="250" width="104" height="30" as="geometry" />
        </mxCell>
        <mxCell id="dzvUKzrdcoG2YfKmjJi--22" value="" style="rounded=0;whiteSpace=wrap;html=1;fontSize=14;dashed=1;" vertex="1" parent="1">
          <mxGeometry x="150" y="310" width="400" height="220" as="geometry" />
        </mxCell>
        <mxCell id="dzvUKzrdcoG2YfKmjJi--23" value="Bridge API Server" style="rounded=0;whiteSpace=wrap;html=1;fontSize=14;" vertex="1" parent="1">
          <mxGeometry x="180" y="340" width="340" height="40" as="geometry" />
        </mxCell>
        <mxCell id="dzvUKzrdcoG2YfKmjJi--24" value="DB" style="shape=cylinder3;whiteSpace=wrap;html=1;boundedLbl=1;backgroundOutline=1;size=15;fontSize=14;" vertex="1" parent="1">
          <mxGeometry x="220" y="410" width="70" height="80" as="geometry" />
        </mxCell>
        <mxCell id="dzvUKzrdcoG2YfKmjJi--25" value="" style="endArrow=classic;html=1;rounded=0;fontSize=14;" edge="1" parent="1">
          <mxGeometry width="50" height="50" relative="1" as="geometry">
            <mxPoint x="254.5" y="380" as="sourcePoint" />
            <mxPoint x="255" y="410" as="targetPoint" />
          </mxGeometry>
        </mxCell>
        <mxCell id="dzvUKzrdcoG2YfKmjJi--36" style="edgeStyle=none;rounded=0;orthogonalLoop=1;jettySize=auto;html=1;entryX=0.75;entryY=0;entryDx=0;entryDy=0;fontSize=18;" edge="1" parent="1" target="dzvUKzrdcoG2YfKmjJi--31">
          <mxGeometry relative="1" as="geometry">
            <mxPoint x="460" y="490" as="sourcePoint" />
          </mxGeometry>
        </mxCell>
        <mxCell id="dzvUKzrdcoG2YfKmjJi--27" value="" style="endArrow=classic;html=1;rounded=0;fontSize=14;exitX=1;exitY=0.5;exitDx=0;exitDy=0;exitPerimeter=0;entryX=0;entryY=0.667;entryDx=0;entryDy=0;entryPerimeter=0;" edge="1" parent="1" source="dzvUKzrdcoG2YfKmjJi--24" target="dzvUKzrdcoG2YfKmjJi--26">
          <mxGeometry width="50" height="50" relative="1" as="geometry">
            <mxPoint x="290" y="490" as="sourcePoint" />
            <mxPoint x="360" y="450" as="targetPoint" />
          </mxGeometry>
        </mxCell>
        <mxCell id="dzvUKzrdcoG2YfKmjJi--28" value="&lt;b&gt;&lt;font style=&quot;font-size: 14px&quot;&gt;Tss Bridge&lt;/font&gt;&lt;/b&gt;" style="text;html=1;strokeColor=none;fillColor=none;align=center;verticalAlign=middle;whiteSpace=wrap;rounded=0;fontSize=14;" vertex="1" parent="1">
          <mxGeometry x="160" y="500" width="79" height="30" as="geometry" />
        </mxCell>
        <mxCell id="dzvUKzrdcoG2YfKmjJi--29" value="" style="endArrow=classic;startArrow=classic;html=1;rounded=0;fontSize=14;entryX=0.5;entryY=1;entryDx=0;entryDy=0;" edge="1" parent="1" target="dzvUKzrdcoG2YfKmjJi--3">
          <mxGeometry width="50" height="50" relative="1" as="geometry">
            <mxPoint x="350" y="340" as="sourcePoint" />
            <mxPoint x="349.5" y="290" as="targetPoint" />
          </mxGeometry>
        </mxCell>
        <mxCell id="dzvUKzrdcoG2YfKmjJi--30" value="&lt;b&gt;TSS cross-chain validation service&lt;/b&gt;" style="text;html=1;strokeColor=none;fillColor=none;align=center;verticalAlign=middle;whiteSpace=wrap;rounded=0;fontSize=14;" vertex="1" parent="1">
          <mxGeometry x="140" y="550" width="250" height="20" as="geometry" />
        </mxCell>
        <mxCell id="dzvUKzrdcoG2YfKmjJi--31" value="&lt;b&gt;&lt;font style=&quot;font-size: 18px&quot;&gt;Destination Chain&lt;/font&gt;&lt;/b&gt;" style="rounded=0;whiteSpace=wrap;html=1;" vertex="1" parent="1">
          <mxGeometry x="130" y="600" width="440" height="50" as="geometry" />
        </mxCell>
        <mxCell id="dzvUKzrdcoG2YfKmjJi--32" style="rounded=0;orthogonalLoop=1;jettySize=auto;html=1;exitX=0.5;exitY=1;exitDx=0;exitDy=0;entryX=0.5;entryY=0;entryDx=0;entryDy=0;fontSize=18;" edge="1" parent="1" source="dzvUKzrdcoG2YfKmjJi--1" target="dzvUKzrdcoG2YfKmjJi--4">
          <mxGeometry relative="1" as="geometry" />
        </mxCell>
        <mxCell id="dzvUKzrdcoG2YfKmjJi--33" style="edgeStyle=none;rounded=0;orthogonalLoop=1;jettySize=auto;html=1;entryX=0.5;entryY=0;entryDx=0;entryDy=0;fontSize=18;exitX=0.5;exitY=1;exitDx=0;exitDy=0;" edge="1" parent="1" source="dzvUKzrdcoG2YfKmjJi--1" target="dzvUKzrdcoG2YfKmjJi--5">
          <mxGeometry relative="1" as="geometry" />
        </mxCell>
        <mxCell id="dzvUKzrdcoG2YfKmjJi--34" style="edgeStyle=none;rounded=0;orthogonalLoop=1;jettySize=auto;html=1;exitX=0.5;exitY=1;exitDx=0;exitDy=0;entryX=0.5;entryY=0;entryDx=0;entryDy=0;fontSize=18;" edge="1" parent="1" source="dzvUKzrdcoG2YfKmjJi--1" target="dzvUKzrdcoG2YfKmjJi--6">
          <mxGeometry relative="1" as="geometry" />
        </mxCell>
        <mxCell id="dzvUKzrdcoG2YfKmjJi--35" style="edgeStyle=none;rounded=0;orthogonalLoop=1;jettySize=auto;html=1;exitX=0.5;exitY=1;exitDx=0;exitDy=0;entryX=0.5;entryY=0;entryDx=0;entryDy=0;fontSize=18;" edge="1" parent="1" source="dzvUKzrdcoG2YfKmjJi--1" target="dzvUKzrdcoG2YfKmjJi--7">
          <mxGeometry relative="1" as="geometry" />
        </mxCell>
        <mxCell id="dzvUKzrdcoG2YfKmjJi--40" value="" style="group" vertex="1" connectable="0" parent="1">
          <mxGeometry x="370" y="410" width="140" height="80" as="geometry" />
        </mxCell>
        <mxCell id="dzvUKzrdcoG2YfKmjJi--26" value="Relayer" style="rounded=1;whiteSpace=wrap;html=1;fontSize=14;" vertex="1" parent="dzvUKzrdcoG2YfKmjJi--40">
          <mxGeometry width="120" height="60" as="geometry" />
        </mxCell>
        <mxCell id="dzvUKzrdcoG2YfKmjJi--37" value="Relayer" style="rounded=1;whiteSpace=wrap;html=1;fontSize=14;" vertex="1" parent="dzvUKzrdcoG2YfKmjJi--40">
          <mxGeometry x="10" y="10" width="120" height="60" as="geometry" />
        </mxCell>
        <mxCell id="dzvUKzrdcoG2YfKmjJi--38" value="Relayer" style="rounded=1;whiteSpace=wrap;html=1;fontSize=14;" vertex="1" parent="dzvUKzrdcoG2YfKmjJi--40">
          <mxGeometry x="20" y="20" width="120" height="60" as="geometry" />
        </mxCell>
      </root>
    </mxGraphModel>
  </diagram>
  <diagram id="fqnMtmJkmWyak88JgbD0" name="relayd">
    <mxGraphModel dx="946" dy="557" grid="0" gridSize="10" guides="1" tooltips="1" connect="1" arrows="1" fold="1" page="1" pageScale="1" pageWidth="827" pageHeight="1169" math="0" shadow="0">
      <root>
        <mxCell id="0" />
        <mxCell id="1" parent="0" />
        <mxCell id="tj-BnypWOK7fnNwKteRC-2" value="tss node" style="ellipse;whiteSpace=wrap;html=1;fontSize=18;" vertex="1" parent="1">
          <mxGeometry x="10" y="280" width="120" height="80" as="geometry" />
        </mxCell>
        <mxCell id="tj-BnypWOK7fnNwKteRC-3" value="&lt;font style=&quot;font-size: 14px&quot;&gt;eventN&lt;/font&gt;" style="rounded=0;whiteSpace=wrap;html=1;fontSize=18;" vertex="1" parent="1">
          <mxGeometry x="240" y="240" width="80" height="40" as="geometry" />
        </mxCell>
        <mxCell id="tj-BnypWOK7fnNwKteRC-4" value="&lt;font style=&quot;font-size: 14px&quot;&gt;nonceN&lt;/font&gt;" style="rounded=0;whiteSpace=wrap;html=1;fontSize=18;" vertex="1" parent="1">
          <mxGeometry x="320" y="240" width="80" height="40" as="geometry" />
        </mxCell>
        <mxCell id="tj-BnypWOK7fnNwKteRC-5" value="......" style="rounded=0;whiteSpace=wrap;html=1;fontSize=18;" vertex="1" parent="1">
          <mxGeometry x="240" y="280" width="80" height="40" as="geometry" />
        </mxCell>
        <mxCell id="tj-BnypWOK7fnNwKteRC-6" value="......" style="rounded=0;whiteSpace=wrap;html=1;fontSize=18;" vertex="1" parent="1">
          <mxGeometry x="320" y="280" width="80" height="40" as="geometry" />
        </mxCell>
        <mxCell id="tj-BnypWOK7fnNwKteRC-7" value="&lt;font style=&quot;font-size: 14px&quot;&gt;event2&lt;/font&gt;" style="rounded=0;whiteSpace=wrap;html=1;fontSize=18;" vertex="1" parent="1">
          <mxGeometry x="240" y="320" width="80" height="40" as="geometry" />
        </mxCell>
        <mxCell id="tj-BnypWOK7fnNwKteRC-8" value="&lt;font style=&quot;font-size: 14px&quot;&gt;nonce2&lt;/font&gt;" style="rounded=0;whiteSpace=wrap;html=1;fontSize=18;" vertex="1" parent="1">
          <mxGeometry x="320" y="320" width="80" height="40" as="geometry" />
        </mxCell>
        <mxCell id="tj-BnypWOK7fnNwKteRC-9" value="&lt;font style=&quot;font-size: 14px&quot;&gt;event1&lt;/font&gt;" style="rounded=0;whiteSpace=wrap;html=1;fontSize=18;" vertex="1" parent="1">
          <mxGeometry x="240" y="360" width="80" height="40" as="geometry" />
        </mxCell>
        <mxCell id="tj-BnypWOK7fnNwKteRC-10" value="&lt;font style=&quot;font-size: 14px&quot;&gt;nonce1&lt;/font&gt;" style="rounded=0;whiteSpace=wrap;html=1;fontSize=18;" vertex="1" parent="1">
          <mxGeometry x="320" y="360" width="80" height="40" as="geometry" />
        </mxCell>
        <mxCell id="tj-BnypWOK7fnNwKteRC-13" value="relayd" style="ellipse;whiteSpace=wrap;html=1;fontSize=18;fillColor=#fff2cc;strokeColor=#d6b656;" vertex="1" parent="1">
          <mxGeometry x="500" y="370" width="120" height="80" as="geometry" />
        </mxCell>
        <mxCell id="tj-BnypWOK7fnNwKteRC-14" value="" style="shape=flexArrow;endArrow=classic;html=1;rounded=0;fontSize=18;" edge="1" parent="1">
          <mxGeometry width="50" height="50" relative="1" as="geometry">
            <mxPoint x="410" y="380" as="sourcePoint" />
            <mxPoint x="490" y="400" as="targetPoint" />
          </mxGeometry>
        </mxCell>
        <mxCell id="tj-BnypWOK7fnNwKteRC-15" value="&lt;font style=&quot;font-size: 12px&quot;&gt;query&lt;/font&gt;" style="edgeLabel;html=1;align=center;verticalAlign=middle;resizable=0;points=[];fontSize=18;" vertex="1" connectable="0" parent="tj-BnypWOK7fnNwKteRC-14">
          <mxGeometry x="-0.0585" y="-3" relative="1" as="geometry">
            <mxPoint x="-7" y="-12" as="offset" />
          </mxGeometry>
        </mxCell>
        <mxCell id="tj-BnypWOK7fnNwKteRC-16" value="block chain" style="ellipse;shape=cloud;whiteSpace=wrap;html=1;fontSize=18;" vertex="1" parent="1">
          <mxGeometry x="570" y="180" width="170" height="100" as="geometry" />
        </mxCell>
        <mxCell id="tj-BnypWOK7fnNwKteRC-17" value="" style="shape=flexArrow;endArrow=classic;html=1;rounded=0;fontSize=18;" edge="1" parent="1" target="tj-BnypWOK7fnNwKteRC-16">
          <mxGeometry width="50" height="50" relative="1" as="geometry">
            <mxPoint x="600" y="370" as="sourcePoint" />
            <mxPoint x="630" y="350" as="targetPoint" />
          </mxGeometry>
        </mxCell>
        <mxCell id="tj-BnypWOK7fnNwKteRC-18" value="&lt;font style=&quot;font-size: 12px&quot;&gt;broadcast&lt;/font&gt;" style="edgeLabel;html=1;align=center;verticalAlign=middle;resizable=0;points=[];fontSize=18;" vertex="1" connectable="0" parent="tj-BnypWOK7fnNwKteRC-17">
          <mxGeometry x="-0.3079" y="-2" relative="1" as="geometry">
            <mxPoint y="-1" as="offset" />
          </mxGeometry>
        </mxCell>
        <mxCell id="tj-BnypWOK7fnNwKteRC-22" value="" style="shape=flexArrow;endArrow=classic;html=1;rounded=0;fontSize=18;curved=1;" edge="1" parent="1">
          <mxGeometry width="50" height="50" relative="1" as="geometry">
            <mxPoint x="140" y="300" as="sourcePoint" />
            <mxPoint x="230" y="260" as="targetPoint" />
          </mxGeometry>
        </mxCell>
        <mxCell id="tj-BnypWOK7fnNwKteRC-23" value="&lt;font style=&quot;font-size: 12px&quot;&gt;insert&lt;/font&gt;" style="edgeLabel;html=1;align=center;verticalAlign=middle;resizable=0;points=[];fontSize=18;" vertex="1" connectable="0" parent="tj-BnypWOK7fnNwKteRC-22">
          <mxGeometry x="-0.0021" y="2" relative="1" as="geometry">
            <mxPoint as="offset" />
          </mxGeometry>
        </mxCell>
        <mxCell id="tj-BnypWOK7fnNwKteRC-24" value="&lt;b&gt;&lt;font style=&quot;font-size: 18px&quot;&gt;Events Table&lt;/font&gt;&lt;/b&gt;" style="text;html=1;strokeColor=none;fillColor=none;align=center;verticalAlign=middle;whiteSpace=wrap;rounded=0;fontSize=14;" vertex="1" parent="1">
          <mxGeometry x="260" y="200" width="130" height="40" as="geometry" />
        </mxCell>
      </root>
    </mxGraphModel>
  </diagram>
  <diagram id="1GgNbptNAkBH2z_Bqdp3" name="changeSigner">
    <mxGraphModel dx="946" dy="557" grid="0" gridSize="10" guides="1" tooltips="1" connect="1" arrows="1" fold="1" page="1" pageScale="1" pageWidth="827" pageHeight="1169" background="none" math="0" shadow="0">
      <root>
        <mxCell id="0" />
        <mxCell id="1" parent="0" />
        <mxCell id="sgoZjsbpFQ32NAwKh-4A-1" value="" style="endArrow=none;html=1;rounded=0;fontSize=18;curved=1;" edge="1" parent="1">
          <mxGeometry width="50" height="50" relative="1" as="geometry">
            <mxPoint y="660" as="sourcePoint" />
            <mxPoint x="760" y="660" as="targetPoint" />
          </mxGeometry>
        </mxCell>
        <mxCell id="sgoZjsbpFQ32NAwKh-4A-5" value="&lt;b&gt;Teleport&lt;/b&gt;" style="text;html=1;strokeColor=none;fillColor=none;align=center;verticalAlign=middle;whiteSpace=wrap;rounded=0;fontSize=18;" vertex="1" parent="1">
          <mxGeometry y="450" width="100" height="30" as="geometry" />
        </mxCell>
        <mxCell id="sgoZjsbpFQ32NAwKh-4A-6" value="&lt;b&gt;Off Chain&lt;/b&gt;" style="text;html=1;strokeColor=none;fillColor=none;align=center;verticalAlign=middle;whiteSpace=wrap;rounded=0;fontSize=18;" vertex="1" parent="1">
          <mxGeometry y="760" width="100" height="30" as="geometry" />
        </mxCell>
        <mxCell id="sgoZjsbpFQ32NAwKh-4A-40" value="" style="edgeStyle=orthogonalEdgeStyle;curved=1;rounded=0;orthogonalLoop=1;jettySize=auto;html=1;fontSize=14;" edge="1" parent="1" source="sgoZjsbpFQ32NAwKh-4A-38" target="sgoZjsbpFQ32NAwKh-4A-39">
          <mxGeometry relative="1" as="geometry" />
        </mxCell>
        <mxCell id="sgoZjsbpFQ32NAwKh-4A-38" value="&lt;font style=&quot;font-size: 12px&quot;&gt;proposal is submitted&lt;/font&gt;" style="rounded=0;whiteSpace=wrap;html=1;fontSize=18;" vertex="1" parent="1">
          <mxGeometry x="130" y="310" width="120" height="60" as="geometry" />
        </mxCell>
        <mxCell id="sgoZjsbpFQ32NAwKh-4A-64" value="" style="edgeStyle=orthogonalEdgeStyle;curved=1;rounded=0;orthogonalLoop=1;jettySize=auto;html=1;fontSize=14;" edge="1" parent="1" source="sgoZjsbpFQ32NAwKh-4A-39" target="sgoZjsbpFQ32NAwKh-4A-63">
          <mxGeometry relative="1" as="geometry" />
        </mxCell>
        <mxCell id="sgoZjsbpFQ32NAwKh-4A-39" value="&lt;div&gt;&lt;font style=&quot;font-size: 12px&quot;&gt;verify the signatures to identify the signers&lt;/font&gt;&lt;/div&gt;" style="rounded=0;whiteSpace=wrap;html=1;fontSize=18;align=center;" vertex="1" parent="1">
          <mxGeometry x="294" y="310" width="120" height="60" as="geometry" />
        </mxCell>
        <mxCell id="sgoZjsbpFQ32NAwKh-4A-79" value="" style="edgeStyle=none;rounded=0;orthogonalLoop=1;jettySize=auto;html=1;fontSize=12;" edge="1" parent="1" source="sgoZjsbpFQ32NAwKh-4A-41" target="sgoZjsbpFQ32NAwKh-4A-78">
          <mxGeometry relative="1" as="geometry" />
        </mxCell>
        <mxCell id="sgoZjsbpFQ32NAwKh-4A-41" value="&lt;font style=&quot;font-size: 12px&quot;&gt;proposal tallying&lt;/font&gt;" style="rounded=0;whiteSpace=wrap;html=1;fontSize=18;" vertex="1" parent="1">
          <mxGeometry x="600" y="490" width="120" height="60" as="geometry" />
        </mxCell>
        <mxCell id="sgoZjsbpFQ32NAwKh-4A-43" value="&lt;b&gt;proposer&lt;/b&gt;" style="shape=umlActor;verticalLabelPosition=bottom;verticalAlign=top;html=1;outlineConnect=0;fontSize=14;" vertex="1" parent="1">
          <mxGeometry x="175" y="130" width="30" height="60" as="geometry" />
        </mxCell>
        <mxCell id="sgoZjsbpFQ32NAwKh-4A-49" value="" style="group" vertex="1" connectable="0" parent="1">
          <mxGeometry x="840" y="480" width="50" height="80" as="geometry" />
        </mxCell>
        <mxCell id="sgoZjsbpFQ32NAwKh-4A-46" value="" style="shape=umlActor;verticalLabelPosition=bottom;verticalAlign=top;html=1;outlineConnect=0;fontSize=14;" vertex="1" parent="sgoZjsbpFQ32NAwKh-4A-49">
          <mxGeometry width="30" height="60" as="geometry" />
        </mxCell>
        <mxCell id="sgoZjsbpFQ32NAwKh-4A-47" value="" style="shape=umlActor;verticalLabelPosition=bottom;verticalAlign=top;html=1;outlineConnect=0;fontSize=14;" vertex="1" parent="sgoZjsbpFQ32NAwKh-4A-49">
          <mxGeometry x="10" y="10" width="30" height="60" as="geometry" />
        </mxCell>
        <mxCell id="sgoZjsbpFQ32NAwKh-4A-48" value="&lt;b&gt;voters&lt;/b&gt;" style="shape=umlActor;verticalLabelPosition=bottom;verticalAlign=top;html=1;outlineConnect=0;fontSize=14;" vertex="1" parent="sgoZjsbpFQ32NAwKh-4A-49">
          <mxGeometry x="20" y="20" width="30" height="60" as="geometry" />
        </mxCell>
        <mxCell id="sgoZjsbpFQ32NAwKh-4A-54" value="" style="shape=flexArrow;endArrow=classic;html=1;rounded=0;fontSize=14;curved=1;" edge="1" parent="1">
          <mxGeometry width="50" height="50" relative="1" as="geometry">
            <mxPoint x="189.5" y="230" as="sourcePoint" />
            <mxPoint x="189.5" y="300" as="targetPoint" />
          </mxGeometry>
        </mxCell>
        <mxCell id="sgoZjsbpFQ32NAwKh-4A-56" value="send a proposal" style="edgeLabel;html=1;align=center;verticalAlign=middle;resizable=0;points=[];fontSize=14;" vertex="1" connectable="0" parent="sgoZjsbpFQ32NAwKh-4A-54">
          <mxGeometry x="-0.3571" y="5" relative="1" as="geometry">
            <mxPoint as="offset" />
          </mxGeometry>
        </mxCell>
        <mxCell id="sgoZjsbpFQ32NAwKh-4A-55" value="" style="shape=flexArrow;endArrow=classic;html=1;rounded=0;fontSize=14;curved=1;" edge="1" parent="1">
          <mxGeometry width="50" height="50" relative="1" as="geometry">
            <mxPoint x="819.5" y="519.5" as="sourcePoint" />
            <mxPoint x="730" y="519.5" as="targetPoint" />
          </mxGeometry>
        </mxCell>
        <mxCell id="sgoZjsbpFQ32NAwKh-4A-57" value="vote" style="edgeLabel;html=1;align=center;verticalAlign=middle;resizable=0;points=[];fontSize=14;" vertex="1" connectable="0" parent="sgoZjsbpFQ32NAwKh-4A-55">
          <mxGeometry x="-0.3571" relative="1" as="geometry">
            <mxPoint as="offset" />
          </mxGeometry>
        </mxCell>
        <mxCell id="sgoZjsbpFQ32NAwKh-4A-66" value="" style="edgeStyle=orthogonalEdgeStyle;curved=1;rounded=0;orthogonalLoop=1;jettySize=auto;html=1;fontSize=12;" edge="1" parent="1" source="sgoZjsbpFQ32NAwKh-4A-63" target="sgoZjsbpFQ32NAwKh-4A-65">
          <mxGeometry relative="1" as="geometry" />
        </mxCell>
        <mxCell id="sgoZjsbpFQ32NAwKh-4A-67" value="yes" style="edgeLabel;html=1;align=center;verticalAlign=middle;resizable=0;points=[];fontSize=12;" vertex="1" connectable="0" parent="sgoZjsbpFQ32NAwKh-4A-66">
          <mxGeometry x="-0.2" y="-1" relative="1" as="geometry">
            <mxPoint y="1" as="offset" />
          </mxGeometry>
        </mxCell>
        <mxCell id="sgoZjsbpFQ32NAwKh-4A-69" value="&lt;font style=&quot;font-size: 12px&quot;&gt;no&lt;/font&gt;" style="rounded=0;orthogonalLoop=1;jettySize=auto;html=1;fontSize=17;" edge="1" parent="1" source="sgoZjsbpFQ32NAwKh-4A-63" target="sgoZjsbpFQ32NAwKh-4A-68">
          <mxGeometry relative="1" as="geometry" />
        </mxCell>
        <mxCell id="sgoZjsbpFQ32NAwKh-4A-63" value="&lt;font style=&quot;font-size: 12px&quot;&gt;pass the verification？&lt;/font&gt;" style="rhombus;whiteSpace=wrap;html=1;fontSize=18;rounded=0;" vertex="1" parent="1">
          <mxGeometry x="470" y="300" width="70" height="80" as="geometry" />
        </mxCell>
        <mxCell id="sgoZjsbpFQ32NAwKh-4A-70" style="edgeStyle=none;rounded=0;orthogonalLoop=1;jettySize=auto;html=1;fontSize=12;dashed=1;" edge="1" parent="1" source="sgoZjsbpFQ32NAwKh-4A-65" target="sgoZjsbpFQ32NAwKh-4A-41">
          <mxGeometry relative="1" as="geometry" />
        </mxCell>
        <mxCell id="sgoZjsbpFQ32NAwKh-4A-65" value="&lt;font size=&quot;1&quot;&gt;proposal committed&lt;/font&gt;" style="whiteSpace=wrap;html=1;fontSize=18;rounded=0;" vertex="1" parent="1">
          <mxGeometry x="600" y="310" width="120" height="60" as="geometry" />
        </mxCell>
        <mxCell id="sgoZjsbpFQ32NAwKh-4A-68" value="&lt;font style=&quot;font-size: 12px&quot;&gt;discard&lt;/font&gt;" style="ellipse;whiteSpace=wrap;html=1;fontSize=18;rounded=0;fillColor=#f8cecc;strokeColor=#b85450;" vertex="1" parent="1">
          <mxGeometry x="478.75" y="415" width="52.5" height="50" as="geometry" />
        </mxCell>
        <mxCell id="sgoZjsbpFQ32NAwKh-4A-81" value="" style="edgeStyle=none;rounded=0;orthogonalLoop=1;jettySize=auto;html=1;fontSize=12;" edge="1" parent="1" source="sgoZjsbpFQ32NAwKh-4A-78" target="sgoZjsbpFQ32NAwKh-4A-80">
          <mxGeometry relative="1" as="geometry" />
        </mxCell>
        <mxCell id="sgoZjsbpFQ32NAwKh-4A-82" value="no" style="edgeLabel;html=1;align=center;verticalAlign=middle;resizable=0;points=[];fontSize=12;" vertex="1" connectable="0" parent="sgoZjsbpFQ32NAwKh-4A-81">
          <mxGeometry x="-0.175" y="-1" relative="1" as="geometry">
            <mxPoint as="offset" />
          </mxGeometry>
        </mxCell>
        <mxCell id="sgoZjsbpFQ32NAwKh-4A-90" style="edgeStyle=none;rounded=0;orthogonalLoop=1;jettySize=auto;html=1;exitX=0;exitY=0.5;exitDx=0;exitDy=0;entryX=0.5;entryY=0;entryDx=0;entryDy=0;fontSize=12;" edge="1" parent="1" source="sgoZjsbpFQ32NAwKh-4A-78" target="sgoZjsbpFQ32NAwKh-4A-86">
          <mxGeometry relative="1" as="geometry" />
        </mxCell>
        <mxCell id="sgoZjsbpFQ32NAwKh-4A-91" value="yes" style="edgeLabel;html=1;align=center;verticalAlign=middle;resizable=0;points=[];fontSize=12;" vertex="1" connectable="0" parent="sgoZjsbpFQ32NAwKh-4A-90">
          <mxGeometry x="-0.0291" y="3" relative="1" as="geometry">
            <mxPoint as="offset" />
          </mxGeometry>
        </mxCell>
        <mxCell id="sgoZjsbpFQ32NAwKh-4A-78" value="&lt;font style=&quot;font-size: 12px&quot;&gt;reach the quorum&lt;/font&gt;" style="rhombus;whiteSpace=wrap;html=1;fontSize=18;rounded=0;" vertex="1" parent="1">
          <mxGeometry x="465" y="480" width="80" height="80" as="geometry" />
        </mxCell>
        <mxCell id="sgoZjsbpFQ32NAwKh-4A-80" value="&lt;font style=&quot;font-size: 12px&quot;&gt;end&lt;/font&gt;" style="ellipse;whiteSpace=wrap;html=1;fontSize=18;rounded=0;fillColor=#f8cecc;strokeColor=#b85450;" vertex="1" parent="1">
          <mxGeometry x="478.75" y="595" width="61.25" height="50" as="geometry" />
        </mxCell>
        <mxCell id="sgoZjsbpFQ32NAwKh-4A-88" value="" style="edgeStyle=none;rounded=0;orthogonalLoop=1;jettySize=auto;html=1;fontSize=12;" edge="1" parent="1" source="sgoZjsbpFQ32NAwKh-4A-86" target="sgoZjsbpFQ32NAwKh-4A-87">
          <mxGeometry relative="1" as="geometry" />
        </mxCell>
        <mxCell id="sgoZjsbpFQ32NAwKh-4A-89" value="yes" style="edgeLabel;html=1;align=center;verticalAlign=middle;resizable=0;points=[];fontSize=12;" vertex="1" connectable="0" parent="sgoZjsbpFQ32NAwKh-4A-88">
          <mxGeometry x="-0.3143" y="4" relative="1" as="geometry">
            <mxPoint as="offset" />
          </mxGeometry>
        </mxCell>
        <mxCell id="sgoZjsbpFQ32NAwKh-4A-93" value="" style="edgeStyle=none;rounded=0;orthogonalLoop=1;jettySize=auto;html=1;fontSize=12;" edge="1" parent="1" source="sgoZjsbpFQ32NAwKh-4A-86" target="sgoZjsbpFQ32NAwKh-4A-92">
          <mxGeometry relative="1" as="geometry" />
        </mxCell>
        <mxCell id="sgoZjsbpFQ32NAwKh-4A-86" value="if target chain is Teleport" style="rhombus;whiteSpace=wrap;html=1;fontSize=12;direction=south;" vertex="1" parent="1">
          <mxGeometry x="314" y="480" width="80" height="80" as="geometry" />
        </mxCell>
        <mxCell id="sgoZjsbpFQ32NAwKh-4A-87" value="pool address changed" style="ellipse;whiteSpace=wrap;html=1;fillColor=#d5e8d4;strokeColor=#82b366;" vertex="1" parent="1">
          <mxGeometry x="314" y="590" width="80" height="60" as="geometry" />
        </mxCell>
        <mxCell id="sgoZjsbpFQ32NAwKh-4A-92" value="emit changing pool address event" style="whiteSpace=wrap;html=1;" vertex="1" parent="1">
          <mxGeometry x="130" y="490" width="120" height="60" as="geometry" />
        </mxCell>
        <mxCell id="sgoZjsbpFQ32NAwKh-4A-95" value="" style="shape=flexArrow;endArrow=classic;html=1;rounded=0;fontSize=12;entryX=0.575;entryY=-0.008;entryDx=0;entryDy=0;entryPerimeter=0;" edge="1" parent="1" target="sgoZjsbpFQ32NAwKh-4A-96">
          <mxGeometry width="50" height="50" relative="1" as="geometry">
            <mxPoint x="189.5" y="580" as="sourcePoint" />
            <mxPoint x="190" y="720" as="targetPoint" />
            <Array as="points">
              <mxPoint x="189.5" y="640" />
            </Array>
          </mxGeometry>
        </mxCell>
        <mxCell id="sgoZjsbpFQ32NAwKh-4A-100" value="listening the event" style="edgeLabel;html=1;align=center;verticalAlign=middle;resizable=0;points=[];fontSize=12;" vertex="1" connectable="0" parent="sgoZjsbpFQ32NAwKh-4A-95">
          <mxGeometry x="0.2348" y="3" relative="1" as="geometry">
            <mxPoint as="offset" />
          </mxGeometry>
        </mxCell>
        <mxCell id="sgoZjsbpFQ32NAwKh-4A-99" value="" style="group" vertex="1" connectable="0" parent="1">
          <mxGeometry x="120" y="740" width="140" height="80" as="geometry" />
        </mxCell>
        <mxCell id="sgoZjsbpFQ32NAwKh-4A-96" value="" style="rounded=1;whiteSpace=wrap;html=1;fontSize=12;" vertex="1" parent="sgoZjsbpFQ32NAwKh-4A-99">
          <mxGeometry width="120" height="60" as="geometry" />
        </mxCell>
        <mxCell id="sgoZjsbpFQ32NAwKh-4A-97" value="" style="rounded=1;whiteSpace=wrap;html=1;fontSize=12;" vertex="1" parent="sgoZjsbpFQ32NAwKh-4A-99">
          <mxGeometry x="10" y="10" width="120" height="60" as="geometry" />
        </mxCell>
        <mxCell id="sgoZjsbpFQ32NAwKh-4A-98" value="Previous group of Signers" style="rounded=1;whiteSpace=wrap;html=1;fontSize=12;" vertex="1" parent="sgoZjsbpFQ32NAwKh-4A-99">
          <mxGeometry x="20" y="20" width="120" height="60" as="geometry" />
        </mxCell>
        <mxCell id="sgoZjsbpFQ32NAwKh-4A-105" value="" style="edgeStyle=none;rounded=0;orthogonalLoop=1;jettySize=auto;html=1;fontSize=12;entryX=0;entryY=0.5;entryDx=0;entryDy=0;" edge="1" parent="1" source="sgoZjsbpFQ32NAwKh-4A-98" target="sgoZjsbpFQ32NAwKh-4A-106">
          <mxGeometry relative="1" as="geometry">
            <mxPoint x="340" y="790" as="targetPoint" />
          </mxGeometry>
        </mxCell>
        <mxCell id="sgoZjsbpFQ32NAwKh-4A-106" value="signing the tx for changing the pool address" style="rounded=0;whiteSpace=wrap;html=1;fontSize=12;" vertex="1" parent="1">
          <mxGeometry x="320" y="760" width="120" height="60" as="geometry" />
        </mxCell>
        <mxCell id="sgoZjsbpFQ32NAwKh-4A-107" value="" style="endArrow=none;html=1;rounded=0;fontSize=18;curved=1;" edge="1" parent="1">
          <mxGeometry width="50" height="50" relative="1" as="geometry">
            <mxPoint y="880" as="sourcePoint" />
            <mxPoint x="760" y="880" as="targetPoint" />
          </mxGeometry>
        </mxCell>
        <mxCell id="sgoZjsbpFQ32NAwKh-4A-108" value="&lt;b&gt;Target Chain&lt;/b&gt;" style="text;html=1;strokeColor=none;fillColor=none;align=center;verticalAlign=middle;whiteSpace=wrap;rounded=0;fontSize=18;" vertex="1" parent="1">
          <mxGeometry y="970" width="120" height="30" as="geometry" />
        </mxCell>
        <mxCell id="sgoZjsbpFQ32NAwKh-4A-109" value="" style="shape=flexArrow;endArrow=classic;html=1;rounded=0;fontSize=12;" edge="1" parent="1">
          <mxGeometry width="50" height="50" relative="1" as="geometry">
            <mxPoint x="379.5" y="830" as="sourcePoint" />
            <mxPoint x="380" y="950" as="targetPoint" />
          </mxGeometry>
        </mxCell>
        <mxCell id="sgoZjsbpFQ32NAwKh-4A-110" value="broadcast the signed transaction" style="edgeLabel;html=1;align=center;verticalAlign=middle;resizable=0;points=[];fontSize=12;" vertex="1" connectable="0" parent="sgoZjsbpFQ32NAwKh-4A-109">
          <mxGeometry x="0.0417" relative="1" as="geometry">
            <mxPoint as="offset" />
          </mxGeometry>
        </mxCell>
        <mxCell id="sgoZjsbpFQ32NAwKh-4A-111" value="pool address changed" style="ellipse;whiteSpace=wrap;html=1;fillColor=#d5e8d4;strokeColor=#82b366;" vertex="1" parent="1">
          <mxGeometry x="340" y="955" width="80" height="60" as="geometry" />
        </mxCell>
        <mxCell id="sgoZjsbpFQ32NAwKh-4A-112" value="target chain:&lt;br&gt;xxx&lt;br&gt;&lt;br&gt;pool-address:&lt;br&gt;xxx&lt;br&gt;&lt;br&gt;pubkey1: signature1&lt;br&gt;pubkey2: signature2&lt;br&gt;pubkey3:signature3" style="shape=note;whiteSpace=wrap;html=1;backgroundOutline=1;darkOpacity=0.05;fontSize=12;fillColor=#fff2cc;strokeColor=#d6b656;" vertex="1" parent="1">
          <mxGeometry x="380" y="90" width="120" height="160" as="geometry" />
        </mxCell>
        <mxCell id="sgoZjsbpFQ32NAwKh-4A-113" value="" style="endArrow=none;html=1;rounded=0;fontSize=12;entryX=0;entryY=0.5;entryDx=0;entryDy=0;entryPerimeter=0;dashed=1;dashPattern=1 1;" edge="1" parent="1" target="sgoZjsbpFQ32NAwKh-4A-112">
          <mxGeometry width="50" height="50" relative="1" as="geometry">
            <mxPoint x="250" y="250" as="sourcePoint" />
            <mxPoint x="300" y="200" as="targetPoint" />
          </mxGeometry>
        </mxCell>
        <mxCell id="sgoZjsbpFQ32NAwKh-4A-114" value="proposal sample&amp;nbsp;" style="edgeLabel;html=1;align=center;verticalAlign=middle;resizable=0;points=[];fontSize=12;" vertex="1" connectable="0" parent="sgoZjsbpFQ32NAwKh-4A-113">
          <mxGeometry x="-0.1039" y="4" relative="1" as="geometry">
            <mxPoint as="offset" />
          </mxGeometry>
        </mxCell>
      </root>
    </mxGraphModel>
  </diagram>
</mxfile>
